<svg width="133" height="190" viewBox="0 0 133 190" fill="none" xmlns="http://www.w3.org/2000/svg">
<g filter="url(#filter0_d_127_192)">
<path fill-rule="evenodd" clip-rule="evenodd" d="M60.5333 187.275C62.1097 188.536 64.0014 189.167 66.2083 189.167C68.2576 189.167 70.0705 188.615 71.6469 187.511C73.3809 186.25 74.642 184.516 75.4302 182.309C78.2677 173.955 81.8146 166.073 86.0708 158.664C90.4847 151.097 96.9479 141.639 105.46 130.289C112.554 120.988 118.781 111.608 124.141 102.15C129.658 92.534 132.417 80.5535 132.417 66.2083C132.417 47.7646 125.953 32.1583 113.027 19.3896C100.258 6.46319 84.6521 0 66.2083 0C47.7646 0 32.0795 6.46319 19.1531 19.3896C6.38438 32.1583 0 47.7646 0 66.2083C0 79.6076 2.4434 91.0365 7.33021 100.495C12.3747 109.953 18.9167 119.884 26.9563 130.289C34.9958 140.693 41.2226 149.757 45.6365 157.481C50.208 165.206 53.9913 173.482 56.9865 182.309C57.7747 184.359 58.957 186.014 60.5333 187.275ZM66 113.583C90.8528 113.583 111 93.4362 111 68.5833C111 43.7305 90.8528 23.5833 66 23.5833C41.1472 23.5833 21 43.7305 21 68.5833C21 93.4362 41.1472 113.583 66 113.583Z" fill="white"/>
<path d="M74.0162 91.1648C74.0162 95.262 70.6948 98.5833 66.5977 98.5833C62.5006 98.5833 59.1792 95.262 59.1792 91.1648C59.1792 87.0677 62.5006 83.7464 66.5977 83.7464C70.6948 83.7464 74.0162 87.0677 74.0162 91.1648Z" fill="white"/>
<path d="M59.08 38.6965C61.1554 36.621 63.6613 35.5833 66.5978 35.5833C69.5343 35.5833 72.0292 36.621 74.0825 38.6965C76.1579 40.7498 77.1957 43.2447 77.1957 46.1812C77.1957 50.8619 76.3677 57.4082 74.7118 65.8203C73.0559 74.2102 70.3798 79.5725 70.3798 79.5725H62.8159C62.8159 79.5725 60.1398 74.2102 58.4839 65.8203C56.828 57.4082 56 50.8619 56 46.1812C56 43.2447 57.0267 40.7498 59.08 38.6965Z" fill="white"/>
</g>
<defs>
<filter id="filter0_d_127_192" x="-1.3" y="0" width="145.017" height="210.467" filterUnits="userSpaceOnUse" color-interpolation-filters="sRGB">
<feFlood flood-opacity="0" result="BackgroundImageFix"/>
<feColorMatrix in="SourceAlpha" type="matrix" values="0 0 0 0 0 0 0 0 0 0 0 0 0 0 0 0 0 0 127 0" result="hardAlpha"/>
<feOffset dx="5" dy="15"/>
<feGaussianBlur stdDeviation="3.15"/>
<feComposite in2="hardAlpha" operator="out"/>
<feColorMatrix type="matrix" values="0 0 0 0 0 0 0 0 0 0 0 0 0 0 0 0 0 0 0.5 0"/>
<feBlend mode="normal" in2="BackgroundImageFix" result="effect1_dropShadow_127_192"/>
<feBlend mode="normal" in="SourceGraphic" in2="effect1_dropShadow_127_192" result="shape"/>
</filter>
</defs>
</svg>
