<svg width="17" height="24" viewBox="0 0 17 24" fill="none" xmlns="http://www.w3.org/2000/svg">
<path fill-rule="evenodd" clip-rule="evenodd" d="M7.68 23.76C7.88 23.92 8.12 24 8.4 24C8.66 24 8.89 23.93 9.09 23.79C9.31 23.63 9.47 23.41 9.57 23.13C9.93 22.07 10.38 21.07 10.92 20.13C11.48 19.17 12.3 17.97 13.38 16.53C14.28 15.35 15.07 14.16 15.75 12.96C16.45 11.74 16.8 10.22 16.8 8.4C16.8 6.06 15.98 4.08 14.34 2.46C12.72 0.819999 10.74 0 8.4 0C6.06 0 4.07 0.819999 2.43 2.46C0.81 4.08 0 6.06 0 8.4C0 10.1 0.31 11.55 0.93 12.75C1.57 13.95 2.4 15.21 3.42 16.53C4.44 17.85 5.23 19 5.79 19.98C6.37 20.96 6.85 22.01 7.23 23.13C7.33 23.39 7.48 23.6 7.68 23.76ZM8.37357 14.4106C11.5267 14.4106 14.0828 11.8545 14.0828 8.70132C14.0828 5.54819 11.5267 2.99207 8.37357 2.99207C5.22044 2.99207 2.66432 5.54819 2.66432 8.70132C2.66432 11.8545 5.22044 14.4106 8.37357 14.4106Z" fill="white"/>
<path d="M9.3907 11.5663C9.3907 12.0861 8.96931 12.5075 8.4495 12.5075C7.92969 12.5075 7.5083 12.0861 7.5083 11.5663C7.5083 11.0465 7.92969 10.6251 8.4495 10.6251C8.96931 10.6251 9.3907 11.0465 9.3907 11.5663Z" fill="white"/>
<path d="M7.4955 4.90951C7.75881 4.6462 8.07675 4.51454 8.44931 4.51454C8.82186 4.51454 9.1384 4.6462 9.39891 4.90951C9.66222 5.17002 9.79388 5.48655 9.79388 5.85911C9.79388 6.45296 9.68883 7.28352 9.47874 8.35077C9.26865 9.41522 8.92913 10.0955 8.92913 10.0955H7.96948C7.96948 10.0955 7.62996 9.41522 7.41987 8.35077C7.20978 7.28352 7.10474 6.45296 7.10474 5.85911C7.10474 5.48655 7.23499 5.17002 7.4955 4.90951Z" fill="white"/>
</svg>
