<svg width="64" height="91" viewBox="0 0 64 91" fill="none" xmlns="http://www.w3.org/2000/svg">
<g filter="url(#filter0_d_127_193)">
<path fill-rule="evenodd" clip-rule="evenodd" d="M29.12 90.09C29.8783 90.6967 30.7883 91 31.85 91C32.8358 91 33.7079 90.7346 34.4663 90.2038C35.3004 89.5971 35.9071 88.7629 36.2862 87.7012C37.6512 83.6821 39.3575 79.8904 41.405 76.3262C43.5283 72.6862 46.6375 68.1362 50.7325 62.6762C54.145 58.2021 57.1404 53.69 59.7188 49.14C62.3729 44.5142 63.7 38.7508 63.7 31.85C63.7 22.9775 60.5908 15.47 54.3725 9.32749C48.23 3.10916 40.7225 0 31.85 0C22.9775 0 15.4321 3.10916 9.21375 9.32749C3.07125 15.47 0 22.9775 0 31.85C0 38.2958 1.17542 43.7937 3.52625 48.3437C5.95292 52.8937 9.1 57.6712 12.9675 62.6762C16.835 67.6812 19.8304 72.0417 21.9537 75.7575C24.1529 79.4733 25.9729 83.4546 27.4138 87.7012C27.7929 88.6871 28.3617 89.4833 29.12 90.09ZM31.7498 54.6401C43.7054 54.6401 53.3974 44.9481 53.3974 32.9925C53.3974 21.0369 43.7054 11.3449 31.7498 11.3449C19.7942 11.3449 10.1022 21.0369 10.1022 32.9925C10.1022 44.9481 19.7942 54.6401 31.7498 54.6401Z" fill="white"/>
<path d="M35.6059 43.8555C35.6059 45.8265 34.0082 47.4242 32.0372 47.4242C30.0663 47.4242 28.4685 45.8265 28.4685 43.8555C28.4685 41.8846 30.0663 40.2868 32.0372 40.2868C34.0082 40.2868 35.6059 41.8846 35.6059 43.8555Z" fill="white"/>
<path d="M28.4209 18.6152C29.4193 17.6168 30.6248 17.1176 32.0374 17.1176C33.45 17.1176 34.6502 17.6168 35.6379 18.6152C36.6363 19.603 37.1355 20.8032 37.1355 22.2158C37.1355 24.4675 36.7372 27.6166 35.9407 31.6633C35.1441 35.6994 33.8567 38.2789 33.8567 38.2789H30.218C30.218 38.2789 28.9307 35.6994 28.1341 31.6633C27.3375 27.6166 26.9392 24.4675 26.9392 22.2158C26.9392 20.8032 27.4331 19.603 28.4209 18.6152Z" fill="white"/>
</g>
<defs>
<filter id="filter0_d_127_193" x="-2.70238" y="0" width="89.8925" height="135.277" filterUnits="userSpaceOnUse" color-interpolation-filters="sRGB">
<feFlood flood-opacity="0" result="BackgroundImageFix"/>
<feColorMatrix in="SourceAlpha" type="matrix" values="0 0 0 0 0 0 0 0 0 0 0 0 0 0 0 0 0 0 127 0" result="hardAlpha"/>
<feOffset dx="10.3938" dy="31.1813"/>
<feGaussianBlur stdDeviation="6.54808"/>
<feComposite in2="hardAlpha" operator="out"/>
<feColorMatrix type="matrix" values="0 0 0 0 0 0 0 0 0 0 0 0 0 0 0 0 0 0 0.5 0"/>
<feBlend mode="normal" in2="BackgroundImageFix" result="effect1_dropShadow_127_193"/>
<feBlend mode="normal" in="SourceGraphic" in2="effect1_dropShadow_127_193" result="shape"/>
</filter>
</defs>
</svg>
