<svg width="74" height="75" viewBox="0 0 74 75" fill="none" xmlns="http://www.w3.org/2000/svg">
<path d="M37 12.3345C35.4667 12.3345 33.9962 12.9436 32.912 14.0278C31.8278 15.112 31.2188 16.5824 31.2188 18.1157C31.2188 19.649 31.8278 21.1195 32.912 22.2037C33.9962 23.2879 35.4667 23.897 37 23.897C38.5333 23.897 40.0038 23.2879 41.088 22.2037C42.1722 21.1195 42.7812 19.649 42.7812 18.1157C42.7812 16.5824 42.1722 15.112 41.088 14.0278C40.0038 12.9436 38.5333 12.3345 37 12.3345ZM26.5938 18.1157C26.5938 15.3558 27.6901 12.7089 29.6417 10.7574C31.5932 8.80584 34.2401 7.70947 37 7.70947C39.7599 7.70947 42.4068 8.80584 44.3583 10.7574C46.3099 12.7089 47.4062 15.3558 47.4062 18.1157C47.4062 20.8756 46.3099 23.5225 44.3583 25.4741C42.4068 27.4256 39.7599 28.522 37 28.522C34.2401 28.522 31.5932 27.4256 29.6417 25.4741C27.6901 23.5225 26.5938 20.8756 26.5938 18.1157ZM13.875 19.272C12.6484 19.272 11.472 19.7592 10.6046 20.6266C9.73728 21.494 9.25 22.6703 9.25 23.897C9.25 25.1236 9.73728 26.3 10.6046 27.1673C11.472 28.0347 12.6484 28.522 13.875 28.522C15.1016 28.522 16.278 28.0347 17.1454 27.1673C18.0127 26.3 18.5 25.1236 18.5 23.897C18.5 22.6703 18.0127 21.494 17.1454 20.6266C16.278 19.7592 15.1016 19.272 13.875 19.272ZM4.625 23.897C4.625 21.4437 5.59955 19.0909 7.33426 17.3562C9.06897 15.6215 11.4217 14.647 13.875 14.647C16.3283 14.647 18.681 15.6215 20.4157 17.3562C22.1504 19.0909 23.125 21.4437 23.125 23.897C23.125 26.3502 22.1504 28.703 20.4157 30.4377C18.681 32.1724 16.3283 33.147 13.875 33.147C11.4217 33.147 9.06897 32.1724 7.33426 30.4377C5.59955 28.703 4.625 26.3502 4.625 23.897ZM55.5 23.897C55.5 22.6703 55.9873 21.494 56.8546 20.6266C57.722 19.7592 58.8984 19.272 60.125 19.272C61.3516 19.272 62.528 19.7592 63.3954 20.6266C64.2627 21.494 64.75 22.6703 64.75 23.897C64.75 25.1236 64.2627 26.3 63.3954 27.1673C62.528 28.0347 61.3516 28.522 60.125 28.522C58.8984 28.522 57.722 28.0347 56.8546 27.1673C55.9873 26.3 55.5 25.1236 55.5 23.897ZM60.125 14.647C57.6717 14.647 55.319 15.6215 53.5843 17.3562C51.8496 19.0909 50.875 21.4437 50.875 23.897C50.875 26.3502 51.8496 28.703 53.5843 30.4377C55.319 32.1724 57.6717 33.147 60.125 33.147C62.5783 33.147 64.931 32.1724 66.6657 30.4377C68.4004 28.703 69.375 26.3502 69.375 23.897C69.375 21.4437 68.4004 19.0909 66.6657 17.3562C64.931 15.6215 62.5783 14.647 60.125 14.647ZM19.6562 38.9282C19.6562 38.4133 19.6971 37.9115 19.7788 37.4228L8.91006 40.3342C7.42928 40.7314 6.16692 41.7006 5.40063 43.0285C4.63434 44.3564 4.42687 45.9343 4.82387 47.4151L6.919 55.2313C7.42472 57.1199 8.32384 58.8802 9.55741 60.3969C10.791 61.9137 12.3312 63.1526 14.077 64.0326C15.8229 64.9125 17.735 65.4135 19.688 65.5028C21.641 65.5921 23.5909 65.2676 25.4097 64.5507C24.1597 63.4286 23.0792 62.1309 22.2023 60.6981C19.8898 61.1784 17.4811 60.7558 15.4701 59.517C13.4591 58.2783 11.9981 56.3172 11.3867 54.0358L9.29163 46.2195C9.25209 46.0729 9.24184 45.9198 9.26147 45.7692C9.2811 45.6185 9.33023 45.4732 9.40604 45.3416C9.48185 45.21 9.58286 45.0945 9.70329 45.0019C9.82373 44.9094 9.96123 44.8414 10.1079 44.802L19.6562 42.2443V38.9282ZM50.0818 65.0433C49.575 64.9082 49.0762 64.7446 48.5879 64.553C49.8388 63.4311 50.92 62.1333 51.7977 60.7004C54.1099 61.1793 56.5177 60.7557 58.5277 59.5166C60.5377 58.2775 61.9977 56.3166 62.6086 54.0358L64.7014 46.2172C64.7806 45.9213 64.7391 45.6061 64.586 45.3407C64.433 45.0754 64.1809 44.8816 63.8851 44.802L54.3438 42.2443V38.9282C54.3438 38.4164 54.3029 37.9153 54.2212 37.4251L65.083 40.3342C66.5638 40.7314 67.8261 41.7006 68.5924 43.0285C69.3587 44.3564 69.5662 45.9343 69.1692 47.4151L67.0741 55.2313C66.1218 58.7857 63.7966 61.8163 60.61 63.6564C57.4233 65.4965 53.6363 65.9953 50.0818 65.0433ZM28.9062 33.147C27.373 33.147 25.9025 33.7561 24.8183 34.8403C23.7341 35.9245 23.125 37.3949 23.125 38.9282V51.647C23.125 55.3269 24.5868 58.856 27.1889 61.4581C29.791 64.0602 33.3201 65.522 37 65.522C40.6799 65.522 44.209 64.0602 46.8111 61.4581C49.4132 58.856 50.875 55.3269 50.875 51.647V38.9282C50.875 37.3949 50.2659 35.9245 49.1817 34.8403C48.0975 33.7561 46.627 33.147 45.0938 33.147H28.9062ZM27.75 38.9282C27.75 38.6216 27.8718 38.3275 28.0887 38.1106C28.3055 37.8938 28.5996 37.772 28.9062 37.772H45.0938C45.4004 37.772 45.6945 37.8938 45.9113 38.1106C46.1282 38.3275 46.25 38.6216 46.25 38.9282V51.647C46.25 54.1002 45.2754 56.453 43.5407 58.1877C41.806 59.9224 39.4533 60.897 37 60.897C34.5467 60.897 32.194 59.9224 30.4593 58.1877C28.7246 56.453 27.75 54.1002 27.75 51.647V38.9282Z" fill="black"/>
</svg>
