<svg width="58" height="82" viewBox="0 0 58 82" fill="none" xmlns="http://www.w3.org/2000/svg">
<path fill-rule="evenodd" clip-rule="evenodd" d="M26.4182 81.1192C27.0974 81.6626 27.9125 81.9343 28.8634 81.9343C29.7464 81.9343 30.5275 81.6965 31.2067 81.2211C31.9538 80.6777 32.4972 79.9306 32.8368 78.9797C34.0594 75.3798 35.5877 71.9837 37.4215 68.7914C39.3234 65.5311 42.1082 61.4558 45.7759 56.5654C48.8324 52.558 51.5153 48.5167 53.8247 44.4414C56.202 40.2981 57.3906 35.1361 57.3906 28.9552C57.3906 21.0083 54.6058 14.284 49.0362 8.78237C43.5345 3.21277 36.8102 0.427979 28.8634 0.427979C20.9165 0.427979 14.1583 3.21277 8.58869 8.78237C3.08702 14.284 0.336182 21.0083 0.336182 28.9552C0.336182 34.7285 1.38897 39.6529 3.49455 43.7282C5.66805 47.8035 8.48681 52.0826 11.9508 56.5654C15.4148 61.0483 18.0978 64.9538 19.9996 68.282C21.9693 71.6101 23.5994 75.176 24.89 78.9797C25.2296 79.8627 25.739 80.5758 26.4182 81.1192ZM28.7736 49.3677C39.482 49.3677 48.1628 40.6869 48.1628 29.9785C48.1628 19.2702 39.482 10.5894 28.7736 10.5894C18.0653 10.5894 9.38446 19.2702 9.38446 29.9785C9.38446 40.6869 18.0653 49.3677 28.7736 49.3677Z" fill="#904A47"/>
<path d="M32.2275 39.7082C32.2275 41.4736 30.7964 42.9046 29.0311 42.9046C27.2658 42.9046 25.8347 41.4736 25.8347 39.7082C25.8347 37.9429 27.2658 36.5118 29.0311 36.5118C30.7964 36.5118 32.2275 37.9429 32.2275 39.7082Z" fill="#904A47"/>
<path d="M25.7919 17.1012C26.6862 16.2069 27.7659 15.7598 29.0311 15.7598C30.2964 15.7598 31.3714 16.2069 32.2561 17.1012C33.1503 17.9859 33.5974 19.0609 33.5974 20.3261C33.5974 22.3429 33.2407 25.1635 32.5272 28.788C31.8137 32.403 30.6607 34.7134 30.6607 34.7134H27.4016C27.4016 34.7134 26.2486 32.403 25.5351 28.788C24.8216 25.1635 24.4648 22.3429 24.4648 20.3261C24.4648 19.0609 24.9072 17.9859 25.7919 17.1012Z" fill="#904A47"/>
</svg>
