<svg width="75" height="75" viewBox="0 0 75 75" fill="none" xmlns="http://www.w3.org/2000/svg">
<path d="M40.7501 10.022C52.7751 10.022 62.3335 19.5803 62.3335 31.6053C62.3335 40.2387 57.4001 47.6387 50.0001 51.0303V65.522H28.4168V56.272H25.3335C21.9418 56.272 19.1668 53.497 19.1668 50.1054V40.8553H14.5418C13.3085 40.8553 12.3835 39.3137 13.3085 38.3887L19.1668 30.6803C19.7835 18.9637 29.0335 10.022 40.7501 10.022ZM40.7501 3.85535C26.5668 3.85535 14.8501 14.3387 13.3085 28.2137L8.37515 34.6887C6.52515 37.1553 6.52515 40.2387 7.75848 42.7053C8.99182 44.8637 10.8418 46.4053 13.0001 46.7137V50.1054C13.0001 55.9637 17.0085 60.5887 22.2501 62.1303V71.6887H56.1668V54.7304C63.8751 49.4887 68.5001 41.1637 68.5001 31.6053C68.5001 16.1887 56.1668 3.85535 40.7501 3.85535ZM43.8335 47.022H37.6668V40.8553H43.8335V47.022ZM43.8335 34.6887H37.6668V16.1887H43.8335" fill="black"/>
</svg>
