<svg width="24" height="25" viewBox="0 0 24 25" fill="none" xmlns="http://www.w3.org/2000/svg">
<path d="M7.8 2.24365H16.2C19.4 2.24365 22 4.84365 22 8.04365V16.4437C22 17.9819 21.3889 19.4572 20.3012 20.5449C19.2135 21.6326 17.7383 22.2437 16.2 22.2437H7.8C4.6 22.2437 2 19.6437 2 16.4437V8.04365C2 6.5054 2.61107 5.03014 3.69878 3.94243C4.78649 2.85472 6.26174 2.24365 7.8 2.24365ZM7.6 4.24365C6.64522 4.24365 5.72955 4.62294 5.05442 5.29807C4.37928 5.9732 4 6.88887 4 7.84365V16.6437C4 18.6337 5.61 20.2437 7.6 20.2437H16.4C17.3548 20.2437 18.2705 19.8644 18.9456 19.1892C19.6207 18.5141 20 17.5984 20 16.6437V7.84365C20 5.85365 18.39 4.24365 16.4 4.24365H7.6ZM17.25 5.74365C17.5815 5.74365 17.8995 5.87535 18.1339 6.10977C18.3683 6.34419 18.5 6.66213 18.5 6.99365C18.5 7.32517 18.3683 7.64312 18.1339 7.87754C17.8995 8.11196 17.5815 8.24365 17.25 8.24365C16.9185 8.24365 16.6005 8.11196 16.3661 7.87754C16.1317 7.64312 16 7.32517 16 6.99365C16 6.66213 16.1317 6.34419 16.3661 6.10977C16.6005 5.87535 16.9185 5.74365 17.25 5.74365ZM12 7.24365C13.3261 7.24365 14.5979 7.77044 15.5355 8.70812C16.4732 9.6458 17 10.9176 17 12.2437C17 13.5697 16.4732 14.8415 15.5355 15.7792C14.5979 16.7169 13.3261 17.2437 12 17.2437C10.6739 17.2437 9.40215 16.7169 8.46447 15.7792C7.52678 14.8415 7 13.5697 7 12.2437C7 10.9176 7.52678 9.6458 8.46447 8.70812C9.40215 7.77044 10.6739 7.24365 12 7.24365ZM12 9.24365C11.2044 9.24365 10.4413 9.55972 9.87868 10.1223C9.31607 10.6849 9 11.448 9 12.2437C9 13.0393 9.31607 13.8024 9.87868 14.365C10.4413 14.9276 11.2044 15.2437 12 15.2437C12.7956 15.2437 13.5587 14.9276 14.1213 14.365C14.6839 13.8024 15 13.0393 15 12.2437C15 11.448 14.6839 10.6849 14.1213 10.1223C13.5587 9.55972 12.7956 9.24365 12 9.24365Z" fill="#904A47"/>
</svg>
